<svg xmlns="http://www.w3.org/2000/svg" viewBox="0 0 34.6 34.2" fill="currentColor">
  <path d="M20.2,121.1c3.1-.4,5.3-2,5.3-5.5s-2.4-5.8-7.1-5.8h-7.8v20.2h3.1v-8.6h3.3l5.5,8.6h3.3l-5.8-8.9ZM13.7,118.7v-6.4h4.2c2.2,0,4.4.4,4.4,3.1s-2.7,3.3-5.3,3.3h-3.3Z" transform="translate(0,-102.7)"></path>
  <path d="M17.3,102.7c-9.3,0-17.3,7.3-17.3,17.1s8,17.1,17.3,17.1,17.1-7.3,17.1-17.1-7.8-17.1-17.1-17.1ZM17.3,134.4c-8,0-14.2-6.4-14.2-14.6s6.2-14.4,14.2-14.4,14,6.2,14,14.4-6,14.6-14,14.6Z" transform="translate(0,-102.7)"></path>
</svg>