<svg xmlns="http://www.w3.org/2000/svg" viewBox="0 0 285.9 138" fill="currentColor">
  <g>
    <path d="M55.9,49.3c.8,1.5,1.8,2.7,3.1,3.6,1.3.9,2.8,1.6,4.5,2,1.7.4,3.5.7,5.3.7s2.6-.1,4-.3c1.4-.2,2.8-.6,4-1.2,1.2-.6,2.3-1.4,3.1-2.4.8-1,1.2-2.4,1.2-4s-.5-3.1-1.6-4.2-2.5-2-4.3-2.7c-1.8-.7-3.8-1.3-6-1.9-2.3-.5-4.5-1.1-6.8-1.8-2.4-.6-4.7-1.3-6.9-2.2-2.3-.9-4.3-2-6-3.3-1.8-1.4-3.2-3.1-4.3-5.1-1.1-2-1.6-4.5-1.6-7.4s.7-6.1,2.1-8.5c1.4-2.4,3.2-4.4,5.5-6,2.3-1.6,4.8-2.8,7.6-3.6,2.8-.8,5.7-1.2,8.5-1.2s6.5.4,9.5,1.1c3.1.7,5.8,1.9,8.1,3.6,2.4,1.7,4.2,3.8,5.6,6.4,1.4,2.6,2.1,5.7,2.1,9.4h-13.5c-.1-1.9-.5-3.5-1.2-4.7-.7-1.2-1.6-2.2-2.7-2.9s-2.4-1.2-3.9-1.5c-1.5-.3-3-.4-4.8-.4s-2.3.1-3.4.4c-1.1.2-2.1.7-3.1,1.2-.9.6-1.7,1.3-2.3,2.2-.6.9-.9,2-.9,3.4s.2,2.3.7,3c.5.8,1.4,1.5,2.8,2.1,1.4.7,3.3,1.3,5.8,2,2.5.7,5.7,1.5,9.6,2.5,1.2.2,2.8.7,4.9,1.3,2.1.6,4.2,1.6,6.3,3,2.1,1.4,3.9,3.2,5.4,5.5s2.3,5.2,2.3,8.7-.6,5.6-1.7,8.1c-1.1,2.5-2.8,4.6-5,6.4-2.2,1.8-5,3.2-8.3,4.2-3.3,1-7.1,1.5-11.4,1.5s-6.9-.4-10.2-1.3c-3.3-.9-6.2-2.2-8.7-4-2.5-1.8-4.5-4.2-6-7-1.5-2.8-2.2-6.2-2.1-10.1h13.5c0,2.1.4,3.9,1.2,5.4Z"></path>
    <path d="M134.5,1.5l23.7,63.4h-14.5l-4.8-14.1h-23.7l-5,14.1h-14L120.2,1.5h14.3ZM135.3,40.4l-8-23.3h-.2l-8.3,23.3h16.4Z"></path>
    <path d="M193.6,1.5c3,0,5.8.3,8.3.8,2.5.5,4.6,1.4,6.4,2.6,1.8,1.2,3.2,2.8,4.1,4.8,1,2,1.5,4.5,1.5,7.5s-.7,5.9-2.2,8c-1.5,2.1-3.6,3.9-6.4,5.2,3.9,1.1,6.8,3.1,8.7,5.9,1.9,2.8,2.9,6.2,2.9,10.2s-.6,6-1.9,8.3c-1.2,2.3-2.9,4.3-5,5.7-2.1,1.5-4.5,2.6-7.2,3.3-2.7.7-5.5,1.1-8.3,1.1h-30.7V1.5h29.9ZM191.8,27.2c2.5,0,4.5-.6,6.1-1.8,1.6-1.2,2.4-3.1,2.4-5.8s-.3-2.7-.8-3.6c-.5-.9-1.2-1.7-2.1-2.2-.9-.5-1.9-.9-3.1-1.1-1.2-.2-2.4-.3-3.6-.3h-13.1v14.8h14.1ZM192.6,54.1c1.4,0,2.7-.1,3.9-.4,1.2-.3,2.3-.7,3.3-1.3.9-.6,1.7-1.5,2.3-2.5.6-1.1.8-2.4.8-4.1,0-3.3-.9-5.6-2.8-7-1.8-1.4-4.3-2.1-7.3-2.1h-15.2v17.4h14.9Z"></path>
    <path d="M225.7,20.3c1.4-4.1,3.5-7.6,6.1-10.6,2.7-3,5.9-5.4,9.8-7.1,3.9-1.7,8.2-2.6,13.1-2.6s9.3.9,13.1,2.6c3.9,1.7,7.1,4.1,9.8,7.1,2.7,3,4.7,6.6,6.1,10.6,1.4,4.1,2.1,8.5,2.1,13.2s-.7,8.9-2.1,12.9c-1.4,4-3.5,7.5-6.1,10.4-2.7,3-5.9,5.3-9.8,7-3.9,1.7-8.2,2.5-13.1,2.5s-9.2-.8-13.1-2.5c-3.9-1.7-7.2-4-9.8-7-2.7-3-4.7-6.4-6.1-10.4-1.4-4-2.1-8.3-2.1-12.9s.7-9.1,2.1-13.2ZM238.4,41.3c.6,2.5,1.6,4.8,3,6.8,1.4,2,3.1,3.6,5.3,4.8,2.2,1.2,4.9,1.8,8,1.8s5.8-.6,8-1.8c2.2-1.2,4-2.8,5.3-4.8,1.4-2,2.4-4.3,3-6.8.6-2.5.9-5.1.9-7.8s-.3-5.5-.9-8.1c-.6-2.6-1.6-4.9-3-7-1.4-2-3.1-3.7-5.3-4.9-2.2-1.2-4.9-1.8-8-1.8s-5.8.6-8,1.8c-2.2,1.2-4,2.8-5.3,4.9-1.4,2-2.4,4.4-3,7-.6,2.6-.9,5.3-.9,8.1s.3,5.3.9,7.8Z"></path>
  </g>
  <g>
    <path d="M44.5,84.9v-11.7h52v11.7h-19v51.7h-14v-51.7h-19Z"></path>
    <path d="M151.2,73.2v11.7h-33.5v13.6h30.7v10.8h-30.7v15.6h34.2v11.7h-48.2v-63.4h47.4Z"></path>
    <path d="M208,131.8c-4.8,4.2-11.4,6.3-19.9,6.3s-15.2-2.1-19.9-6.2c-4.7-4.1-7.1-10.5-7.1-19.2v-39.4h13.9v39.4c0,1.7.1,3.4.4,5.1.3,1.7.9,3.1,1.9,4.4.9,1.3,2.3,2.3,4,3.1,1.7.8,4,1.2,6.8,1.2,5,0,8.4-1.1,10.3-3.3,1.9-2.2,2.8-5.7,2.8-10.4v-39.4h13.9v39.4c0,8.6-2.4,15-7.2,19.1Z"></path>
    <path d="M261.4,73.2c2.8,0,5.4.5,7.7,1.4,2.3.9,4.2,2.2,5.9,3.8,1.6,1.6,2.9,3.5,3.7,5.6.9,2.1,1.3,4.4,1.3,6.8,0,3.7-.8,7-2.4,9.7-1.6,2.7-4.1,4.8-7.7,6.2v.2c1.7.5,3.1,1.2,4.3,2.2,1.1,1,2,2.1,2.8,3.5.7,1.3,1.2,2.8,1.6,4.4.3,1.6.5,3.2.7,4.8,0,1,.1,2.2.2,3.6,0,1.4.2,2.8.3,4.2.1,1.4.4,2.8.7,4,.3,1.3.8,2.4,1.5,3.2h-13.9c-.8-2-1.2-4.4-1.4-7.2-.2-2.8-.4-5.5-.8-8-.5-3.3-1.5-5.7-3-7.3-1.5-1.5-4.1-2.3-7.6-2.3h-13.9v24.8h-14v-63.4h34.2ZM256.4,101.9c3.2,0,5.6-.7,7.2-2.1,1.6-1.4,2.4-3.7,2.4-6.9s-.8-5.3-2.4-6.7c-1.6-1.4-4-2.1-7.2-2.1h-15.3v17.9h15.3Z"></path>
  </g>
  <g>
    <path d="M20.2,121.1c3.1-.4,5.3-2,5.3-5.5s-2.4-5.8-7.1-5.8h-7.8v20.2h3.1v-8.6h3.3l5.5,8.6h3.3l-5.8-8.9ZM13.7,118.7v-6.4h4.2c2.2,0,4.4.4,4.4,3.1s-2.7,3.3-5.3,3.3h-3.3Z"></path>
    <path d="M17.3,102.7c-9.3,0-17.3,7.3-17.3,17.1s8,17.1,17.3,17.1,17.1-7.3,17.1-17.1-7.8-17.1-17.1-17.1ZM17.3,134.4c-8,0-14.2-6.4-14.2-14.6s6.2-14.4,14.2-14.4,14,6.2,14,14.4-6,14.6-14,14.6Z"></path>
  </g>
</svg>